<svg xmlns="http://www.w3.org/2000/svg" version="1.1" xmlns:xlink="http://www.w3.org/1999/xlink" width="512" height="512" x="0" y="0" viewBox="0 0 512 512" style="enable-background:new 0 0 512 512" xml:space="preserve" class=""><g><path d="M434.31 276.25c42.76.13 77.43 35.42 77.69 79.07v77.37c-.26 43.69-34.89 79.05-77.69 79.31h-75.79c-42.76-.27-77.33-35.66-77.45-79.31v-77.37c0-43.67 34.67-79.07 77.45-79.07zm-325.5 0a20.77 20.77 0 0 1 19.95 9.9 21.71 21.71 0 0 1 0 22.65 20.77 20.77 0 0 1-19.95 9.9H77.69c-19.85 0-36 16.35-36.11 36.62v76.4c.5 20.1 16.42 36.24 36.11 36.62H154a35.47 35.47 0 0 0 25.52-10.64 37 37 0 0 0 10.59-26V317l-.32-2.85a21.47 21.47 0 0 1 9.68-19 20.56 20.56 0 0 1 23.4.69 21.57 21.57 0 0 1 8.1 22.42v114.19c0 43.8-34.78 79.31-77.69 79.31H77.69C35.15 510.86.88 475.87 0 432.45v-77.13a79.92 79.92 0 0 1 22.77-56 76.7 76.7 0 0 1 54.92-23.07zm325.5 42.45h-75.79c-19.81 0-35.88 16.39-35.88 36.62v77.37a36.8 36.8 0 0 0 10.44 26 35.25 35.25 0 0 0 25.44 10.65h75.79a35.26 35.26 0 0 0 25.44-10.65 36.8 36.8 0 0 0 10.44-26v-77.37a37.07 37.07 0 0 0-10.51-25.9 35.51 35.51 0 0 0-25.37-10.72zm0-318.7c42.44 1 76.57 36 77.45 79.31v77.13a79.9 79.9 0 0 1-22 56.19 76.73 76.73 0 0 1-54.49 23.85H403.9a21.4 21.4 0 0 1 0-42.45h30.41A35.73 35.73 0 0 0 459.86 183a37.26 37.26 0 0 0 10.32-26.3V79.31C469.93 59.19 454 43 434.31 42.69h-75.79c-19.81 0-35.88 16.39-35.88 36.62V195l-.24 2.66a21.29 21.29 0 0 1-21.14 18.2 20.49 20.49 0 0 1-14.56-6.61 21.29 21.29 0 0 1-5.63-15.25V79.31a79.87 79.87 0 0 1 22.6-56.07A76.66 76.66 0 0 1 358.52 0zM153.48 0c42.85.13 77.52 35.56 77.69 79.31v77.37a79.92 79.92 0 0 1-22.77 56 76.68 76.68 0 0 1-54.92 23.07H77.69C34.93 235.62.26 200.33 0 156.68V79.31C.26 35.62 34.89.26 77.69 0zm0 42.69H77.69a35.45 35.45 0 0 0-25.83 10.46A37 37 0 0 0 41.1 79.31v77.37a37.06 37.06 0 0 0 10.5 26.63A35.51 35.51 0 0 0 77.69 194h75.79A35.73 35.73 0 0 0 179 183a37.31 37.31 0 0 0 10.33-26.3V79.31c-.13-20.17-16.12-36.49-35.88-36.62z" data-name="6" fill="#fff" opacity="1" data-original="#fff"></path></g></svg>